<svg xmlns="http://www.w3.org/2000/svg" xmlns:xlink="http://www.w3.org/1999/xlink" viewBox="0 0 36 36">
  <defs>
    <style>
      .cls-1 {
        fill: url(#linear-gradient);
      }

      .cls-2, .cls-4 {
        fill: #fff;
      }

      .cls-3, .cls-4 {
        stroke: none;
      }
    </style>
    <linearGradient id="linear-gradient" x1="0.5" x2="0.5" y2="1" gradientUnits="objectBoundingBox">
      <stop offset="0" stop-color="#74f0e7"/>
      <stop offset="1" stop-color="#09a79b"/>
    </linearGradient>
  </defs>
  <g id="Add" transform="translate(-181 -582)">
    <circle id="Circle" class="cls-1" cx="18" cy="18" r="18" transform="translate(181 582)"/>
    <g id="Add-2" data-name="Add" class="cls-2" transform="translate(-3520 3576.5)">
      <path class="cls-3" d="M 3720.135986328125 -2969 L 3719.635986328125 -2969 L 3718.36328125 -2969 L 3717.86328125 -2969 L 3717.86328125 -2969.5 L 3717.86328125 -2975.2998046875 L 3712 -2975.2998046875 L 3711.5 -2975.2998046875 L 3711.5 -2975.7998046875 L 3711.5 -2977.19970703125 L 3711.5 -2977.69970703125 L 3712 -2977.69970703125 L 3717.86328125 -2977.69970703125 L 3717.86328125 -2983.50048828125 L 3717.86328125 -2984.00048828125 L 3718.36328125 -2984.00048828125 L 3719.635986328125 -2984.00048828125 L 3720.135986328125 -2984.00048828125 L 3720.135986328125 -2983.50048828125 L 3720.135986328125 -2977.69970703125 L 3726.000244140625 -2977.69970703125 L 3726.500244140625 -2977.69970703125 L 3726.500244140625 -2977.19970703125 L 3726.500244140625 -2975.7998046875 L 3726.500244140625 -2975.2998046875 L 3726.000244140625 -2975.2998046875 L 3720.135986328125 -2975.2998046875 L 3720.135986328125 -2969.5 L 3720.135986328125 -2969 Z"/>
      <path class="cls-4" d="M 3719.635986328125 -2969.5 L 3719.635986328125 -2975.7998046875 L 3726.000244140625 -2975.7998046875 L 3726.000244140625 -2977.19970703125 L 3719.635986328125 -2977.19970703125 L 3719.635986328125 -2983.50048828125 L 3718.36328125 -2983.50048828125 L 3718.36328125 -2977.19970703125 L 3712 -2977.19970703125 L 3712 -2975.7998046875 L 3718.36328125 -2975.7998046875 L 3718.36328125 -2969.5 L 3719.635986328125 -2969.5 M 3720.635986328125 -2968.5 L 3719.635986328125 -2968.5 L 3718.36328125 -2968.5 L 3717.36328125 -2968.5 L 3717.36328125 -2969.5 L 3717.36328125 -2974.7998046875 L 3712 -2974.7998046875 L 3711 -2974.7998046875 L 3711 -2975.7998046875 L 3711 -2977.19970703125 L 3711 -2978.19970703125 L 3712 -2978.19970703125 L 3717.36328125 -2978.19970703125 L 3717.36328125 -2983.50048828125 L 3717.36328125 -2984.50048828125 L 3718.36328125 -2984.50048828125 L 3719.635986328125 -2984.50048828125 L 3720.635986328125 -2984.50048828125 L 3720.635986328125 -2983.50048828125 L 3720.635986328125 -2978.19970703125 L 3726.000244140625 -2978.19970703125 L 3727.000244140625 -2978.19970703125 L 3727.000244140625 -2977.19970703125 L 3727.000244140625 -2975.7998046875 L 3727.000244140625 -2974.7998046875 L 3726.000244140625 -2974.7998046875 L 3720.635986328125 -2974.7998046875 L 3720.635986328125 -2969.5 L 3720.635986328125 -2968.5 Z"/>
    </g>
  </g>
</svg>
