<svg xmlns="http://www.w3.org/2000/svg" viewBox="0 0 48 33.564">
  <defs>
    <style>
      .cls-1, .cls-2 {
        fill: #8dabc4;
      }

      .cls-1 {
        font-size: 10px;
        font-family: SegoeUI, Segoe UI;
      }
    </style>
  </defs>
  <g id="Feed" transform="translate(-14 -629.936)">
    <text id="Tab_Label" data-name="Tab Label" class="cls-1" transform="translate(14 649.5)"><tspan x="2.206" y="11">All Clients</tspan></text>
    <g id="Group_311" data-name="Group 311" transform="translate(79.243 605.769)">
      <g id="Group_312" data-name="Group 312" transform="translate(-54.556 24.167)">
        <path id="Path_797" data-name="Path 797" class="cls-2" d="M13.3,5.5h0c.4,0,.4,0,.6-.2a.736.736,0,0,0-.2-.6,9.022,9.022,0,0,0-2.8-.4.431.431,0,0,0-.4.4.431.431,0,0,0,.4.4A5.5,5.5,0,0,1,13.3,5.5Z" transform="translate(10.529 4.312)"/>
        <path id="Path_798" data-name="Path 798" class="cls-2" d="M26.236,14.82l-1.6-.4a.2.2,0,0,1-.2-.2v-.6c.2,0,.2-.2.4-.4a3.216,3.216,0,0,0,1-2.2v-1a2.54,2.54,0,0,0,.2-1.2v-2a.431.431,0,0,0-.4-.4H21.83a2.651,2.651,0,0,0-2.6,2.6h0a1.805,1.805,0,0,0,.2,1l.2.4v.6a3.973,3.973,0,0,0,1.2,2.6v.6s0,.2-.4.2l-.6.2-2.2-.8c0-.2,0-.2-.2-.4l-.8-.8v-1.2l.2-.2a4.393,4.393,0,0,0,1.4-3.4v-1.2a5.925,5.925,0,0,0,.4-2V.4c.2-.2,0-.4-.2-.4H12.417A3.8,3.8,0,0,0,8.612,3.805v.8a7.116,7.116,0,0,0,.4,2v1a4.932,4.932,0,0,0,1.8,3.805v1.4l-.8.6a.7.7,0,0,0-.2.4l-2.4.8a.7.7,0,0,0-.4.2l-.4-.2a2.8,2.8,0,0,0,1.4-1.2v-.4c-.2-.6-.2-1.6-.4-2.4v-.8a3.376,3.376,0,0,0-3.4-3.4,3.505,3.505,0,0,0-3.4,3.4v.8c0,.8,0,2-.4,2.4v.4A2.774,2.774,0,0,0,2,14.62l-1,.6a1.586,1.586,0,0,0-1,1.6v3a.7.7,0,0,0,.4.2.431.431,0,0,0,.4-.4v-2.8c0-.4.2-.8.4-.8l1.4-.6.4.4a2.847,2.847,0,0,0,1.2.4,2.847,2.847,0,0,0,1.2-.4l.4-.4.4.2a8.674,8.674,0,0,0-.2,1v3a.4.4,0,1,0,.8,0v-3a1.352,1.352,0,0,1,.8-1.2l2.6-1,1.2,1.6c0,.2.4.4.6.4h0a.736.736,0,0,0,.6-.2l.6-.6v4.206a.431.431,0,0,0,.4.4c.2,0,.4-.4.4-.6V15.622l.6.6a.736.736,0,0,0,.6.2h0a1.041,1.041,0,0,0,.8-.4l1-1.6,2.6,1a1.1,1.1,0,0,1,.8,1.2v3a.4.4,0,1,0,.8,0v-3a1.818,1.818,0,0,0-.6-1.4h0a.62.62,0,0,0,.4-.2l1.2,1v3.6a.4.4,0,1,0,.8,0v-3.6l1-1h.2l1.8.6c.4.2.6.4.6.8v3.4a.4.4,0,0,0,.8,0v-3.4A1.745,1.745,0,0,0,26.236,14.82Zm-20.228-.8v-.4a3.592,3.592,0,0,0,1-1.4c0,.4.2.6.2,1A3.08,3.08,0,0,1,6.008,14.019ZM1.6,9.814a4.948,4.948,0,0,1,.8-1.8,2.983,2.983,0,0,1,1.8-.8,2.175,2.175,0,0,1,1.8.8,2.983,2.983,0,0,1,.8,1.8v.8h0a4.361,4.361,0,0,0-1.8-1.4,7.5,7.5,0,0,0-1.6-.2c-.2,0-.2,0-.2.2l-.8.6a.376.376,0,0,0,0,.6.376.376,0,0,0,.6,0l.6-.6a3.209,3.209,0,0,1,2.8,1.6,2.179,2.179,0,0,1-2.2,1.8,2.058,2.058,0,0,1-2.2-2c0-.4,0-.4-.4-.4h0v-1Zm-.4,3.4a1.5,1.5,0,0,0,.2-1,3.592,3.592,0,0,0,1,1.4v.4A3.08,3.08,0,0,1,1.2,13.218Zm2.4,2-.4-.4v-.8h2v.8l-.4.4A1.26,1.26,0,0,1,3.6,15.221ZM9.814,7.61v-1.2a2.976,2.976,0,0,1-.4-1.8v-.8a3.08,3.08,0,0,1,3-3h5.608V4.606a3.773,3.773,0,0,1-.4,1.6v1.4a3.954,3.954,0,0,1-1.2,2.8.7.7,0,0,1-.4.2h0a3.316,3.316,0,0,1-2.6,1A4.1,4.1,0,0,1,9.814,7.61Zm3.6,4.807h.4a4.037,4.037,0,0,0,2.2-.6v.8l-2.4,1.4-2-1.4v-.8A2.8,2.8,0,0,0,13.418,12.417Zm-1.4,3.2h0l-1.2-1.8.4-.4,1.8,1.2Zm3.4,0h0l-1-1,1.8-1.2.4.4Zm5.007-4.606v-1l-.2-.4c0-.2-.2-.4-.2-.6h0a1.8,1.8,0,0,1,1.8-1.8h3.4v1.6a1.2,1.2,0,0,1-.2.8l-.2.4v1a2.274,2.274,0,0,1-.6,1.6,2.274,2.274,0,0,1-1.6.6A2.223,2.223,0,0,1,20.428,11.015Zm2.2,3h0a1.806,1.806,0,0,0,1-.2v.4l-1,1-1-1v-.4A1.806,1.806,0,0,0,22.631,14.019Z" transform="translate(0)"/>
        <path id="Path_799" data-name="Path 799" class="cls-2" d="M12.8,8.4a.431.431,0,0,0-.4.4v2.6a.4.4,0,0,0,.8,0V8.8C13.2,8.4,13,8.4,12.8,8.4Z" transform="translate(12.434 8.423)"/>
        <path id="Path_800" data-name="Path 800" class="cls-2" d="M1.3,8.6A.431.431,0,0,0,.9,9v2a.431.431,0,0,0,.4.4.431.431,0,0,0,.4-.4V9A.431.431,0,0,0,1.3,8.6Z" transform="translate(0.902 8.624)"/>
        <path id="Path_801" data-name="Path 801" class="cls-2" d="M6,2.8H6a9.789,9.789,0,0,1,2.6-.2,3.16,3.16,0,0,1,2.6,1,.376.376,0,0,0,.6,0,.376.376,0,0,0,0-.6C10.207,1.4,7.2,1.8,5.8,2a.862.862,0,0,0-.8.8v1c.2.2.4.4.6.4A.431.431,0,0,0,6,3.8v-1Z" transform="translate(5.014 1.807)"/>
        <path id="Path_802" data-name="Path 802" class="cls-2" d="M4.7,8.8a.431.431,0,0,0-.4.4V11a.431.431,0,0,0,.4.4.431.431,0,0,0,.4-.4V9.2A.431.431,0,0,0,4.7,8.8Z" transform="translate(4.312 8.824)"/>
        <path id="Path_803" data-name="Path 803" class="cls-2" d="M9.4,8.8a.431.431,0,0,0-.4.4V11a.7.7,0,0,0,.4.2.431.431,0,0,0,.4-.4V9.2A.431.431,0,0,0,9.4,8.8Z" transform="translate(9.025 8.824)"/>
      </g>
    </g>
  </g>
</svg>
