<svg id="Group_281" data-name="Group 281" xmlns="http://www.w3.org/2000/svg" viewBox="0 0 16 14.728">
  <defs>
    <style>
      .cls-1 {
        fill: #8dabc4;
      }
    </style>
  </defs>
  <path id="Path_50" data-name="Path 50" class="cls-1" d="M3.95,7.364V.669A.632.632,0,0,0,3.28,0a.632.632,0,0,0-.669.669V7.364A3.36,3.36,0,0,0,0,10.577a3.36,3.36,0,0,0,2.611,3.213v.268a.632.632,0,0,0,.669.669.632.632,0,0,0,.669-.669v-.268a3.283,3.283,0,0,0,0-6.427ZM3.28,12.519a1.941,1.941,0,1,1,1.941-1.941A1.943,1.943,0,0,1,3.28,12.519Z"/>
  <path id="Path_51" data-name="Path 51" class="cls-1" d="M20.661,10.577A3.3,3.3,0,0,0,18.05,7.364V.669a.669.669,0,1,0-1.339,0V7.364a3.283,3.283,0,0,0,0,6.427v.268a.669.669,0,1,0,1.339,0v-.268A3.247,3.247,0,0,0,20.661,10.577Zm-3.28,1.941a1.941,1.941,0,1,1,1.941-1.941A1.943,1.943,0,0,1,17.38,12.519Z" transform="translate(-4.661)"/>
  <path id="Path_52" data-name="Path 52" class="cls-1" d="M13.728,4.285A3.241,3.241,0,0,0,11.05,1.071v-.4a.669.669,0,0,0-1.339,0v.4A3.247,3.247,0,0,0,7.1,4.285,3.3,3.3,0,0,0,9.711,7.5v6.561a.669.669,0,0,0,1.339,0V7.5A3.35,3.35,0,0,0,13.728,4.285Zm-5.289,0A1.943,1.943,0,0,1,10.38,2.343a2,2,0,0,1,2.008,1.941A2,2,0,0,1,10.38,6.226,1.943,1.943,0,0,1,8.439,4.285Z" transform="translate(-2.347)"/>
</svg>
