<svg xmlns="http://www.w3.org/2000/svg" viewBox="0 0 79.98 81.089">
  <defs>
    <style>
      .cls-1 {
        fill: #fff;
      }
    </style>
  </defs>
  <g id="Group_21" data-name="Group 21" transform="translate(0 -0.022)">
    <g id="Group_19" data-name="Group 19" transform="translate(19.005 0.022)">
      <path id="Path_51" data-name="Path 51" class="cls-1" d="M138.171,173.627a15.466,15.466,0,0,0,3.822,15.912c.361.344.563.831.462,1.032a28.255,28.255,0,0,0-.837,4.329c-.2,3.655.361,4.7-.13,5.247-.4.43-1.341-.287-2.452-1.2a21.875,21.875,0,0,1-6.938-12,20.882,20.882,0,0,1,1.255-11.583,19.568,19.568,0,0,1,1.99-3.641c2.12-3.111,3.5-3.34,3.808-3.111C139.6,168.968,139.6,169.255,138.171,173.627Z" transform="translate(-131.761 -144.387)"/>
      <path id="Path_52" data-name="Path 52" class="cls-1" d="M195,41.518a20.906,20.906,0,0,1,6.649-6.694A20.665,20.665,0,0,1,213.088,31.7c3.692.186,4.659.817,5.308,1.907,1.1,1.821.808,3.9-.4,6.723a15.915,15.915,0,0,1-9.2,8.558,16.177,16.177,0,0,1-9.375.33c-1.89-.43-3.462-1.534-3.909-1.276-.375.215-.62,1.849-.62,4.487,0,3.068,2.64,6.393,3.938,6.651a21.436,21.436,0,0,0,9.058-.229A20.486,20.486,0,0,0,221.6,47.524a20.13,20.13,0,0,0,.563-15.883,25.349,25.349,0,0,0-5.207-8.028,8.273,8.273,0,0,1-1.615-4.845,8.156,8.156,0,0,0-2.452-5.06c-.721-.659-1-.7-1.154-.487a.627.627,0,0,0,0,.545,4.9,4.9,0,0,1,.216,2.494,5.587,5.587,0,0,1-.894,2.064,2.452,2.452,0,0,1-1.01.817,1.894,1.894,0,0,1-2.337-1.046,2.867,2.867,0,0,1,.058-1.864,15.717,15.717,0,0,0-.606-8.787A16.286,16.286,0,0,0,201.693.305c-.231-.158-.707-.43-.88-.186-.13.158.173.717.332,1a13.086,13.086,0,0,1,.894,9.49c-1,3.3-7.385,11.783-9.318,15.467a18.772,18.772,0,0,0-2.034,9.117,11.683,11.683,0,0,0,2.091,5.863C193.573,42.177,194.611,42.177,195,41.518Z" transform="translate(-182.158 -0.022)"/>
      <path id="Path_53" data-name="Path 53" class="cls-1" d="M234.419,280.8c-.433-.473.288-1.72.909-2.652a16.759,16.759,0,0,1,2.178-2.609c.49-.416.591-.4.75.1s.418,4.73.4,4.931c-.043.588.288,1.806-.606,1.663A11.158,11.158,0,0,1,234.419,280.8Z" transform="translate(-219.5 -235.788)"/>
      <path id="Path_54" data-name="Path 54" class="cls-1" d="M269.6,257.191c0-.545.548-.831,1.24-1.261a3.023,3.023,0,0,1,1.731-.645,9.116,9.116,0,0,1,2.135,3.326c.591,1.477,1.24,2.652,1.587,3.7.231.7.692,1.634.058,2.007A13.5,13.5,0,0,1,271.3,265.4c-.649-.029-.865-.774-1.111-1.706A53.222,53.222,0,0,1,269.6,257.191Z" transform="translate(-249.718 -218.676)"/>
      <path id="Path_55" data-name="Path 55" class="cls-1" d="M303,244.017c0-.659,1-.645,1.688-.831a4.719,4.719,0,0,1,2.481-.215c.548.244.692.416,1.688,1.548s2.048,2.236,2.048,2.924-.346,1.448-1.37,2.681c-.764.9-1.385,1.562-1.962,1.591-.75.043-1.688-1.677-2.784-3.455A11.51,11.51,0,0,1,303,244.017Z" transform="translate(-278.301 -208.054)"/>
      <path id="Path_56" data-name="Path 56" class="cls-1" d="M342.006,241.911c-.115-.33.4-.416,1.341-.373s2.063.043,2.25.989a4.413,4.413,0,0,1-.317,1.72c-.159.473-.144.788-1.24-.3S342.193,242.37,342.006,241.911Z" transform="translate(-311.667 -206.909)"/>
    </g>
    <g id="Group_20" data-name="Group 20" transform="translate(0 66.26)">
      <path id="Path_57" data-name="Path 57" class="cls-1" d="M7.4,476.951a7.425,7.425,0,0,1,0-14.851,6.814,6.814,0,0,1,4.861,1.677,1.31,1.31,0,0,1-.851,2.308c-1.039,0-1.659-1.333-4-1.333a4.781,4.781,0,0,0,0,9.547,4.868,4.868,0,0,0,3.346-1.132l-.029-2.021H8.02a1.29,1.29,0,1,1,0-2.58h4.168a1.433,1.433,0,0,1,1.428,1.448v3.512a1.224,1.224,0,0,1-.317.9A7.671,7.671,0,0,1,7.4,476.951Z" transform="translate(0 -462.1)"/>
      <path id="Path_58" data-name="Path 58" class="cls-1" d="M135.444,476.9a1.381,1.381,0,0,1-1.385,1.376,1.443,1.443,0,0,1-1.255-.76c-.2-.43-2.539-5.075-2.567-5.189h-3.952v4.544a1.431,1.431,0,0,1-1.457,1.4,1.406,1.406,0,0,1-1.428-1.4V465.219a1.418,1.418,0,0,1,1.428-1.419h5.366c2.87,0,5.25,1.147,5.25,4.3a3.8,3.8,0,0,1-2.365,3.741C133.5,472.659,135.444,476.214,135.444,476.9Zm-9.159-10.45v3.455h4.327a1.741,1.741,0,1,0,0-3.455Z" transform="translate(-105.601 -463.556)"/>
      <path id="Path_59" data-name="Path 59" class="cls-1" d="M235.7,475.66V463.848a1.448,1.448,0,0,1,1.457-1.448,1.424,1.424,0,0,1,1.428,1.448V475.66a1.409,1.409,0,0,1-1.428,1.419A1.424,1.424,0,0,1,235.7,475.66Z" transform="translate(-201.703 -462.357)"/>
      <path id="Path_60" data-name="Path 60" class="cls-1" d="M288.578,466.495v10.364a1.428,1.428,0,0,1-2.856,0V466.495h-3.981a1.347,1.347,0,0,1,0-2.695h10.818a1.384,1.384,0,0,1,1.37,1.362,1.36,1.36,0,0,1-1.37,1.333Z" transform="translate(-239.956 -463.556)"/>
      <path id="Path_61" data-name="Path 61" class="cls-1" d="M400.528,476.921a1.433,1.433,0,0,1-1.428-1.448V463.848a1.442,1.442,0,1,1,2.885,0v10.393h6.505a1.348,1.348,0,1,1,0,2.695h-7.962Z" transform="translate(-341.535 -462.357)"/>
      <path id="Path_62" data-name="Path 62" class="cls-1" d="M474.318,470.786v4.96a1.435,1.435,0,0,1-2.87,0v-4.96l-4.673-6.207a1.157,1.157,0,0,1-.274-.774,1.313,1.313,0,0,1,1.313-1.3,1.267,1.267,0,0,1,1.039.53l4,5.447,4-5.447a1.35,1.35,0,0,1,1.039-.53,1.313,1.313,0,0,1,1.313,1.3,1.169,1.169,0,0,1-.26.774Z" transform="translate(-399.213 -462.443)"/>
    </g>
  </g>
</svg>
