<svg xmlns="http://www.w3.org/2000/svg" viewBox="0 0 48 33.5">
  <defs>
    <style>
      .cls-1, .cls-2 {
        fill: #8dabc4;
      }

      .cls-1 {
        font-size: 10px;
        font-family: SegoeUI, Segoe UI;
      }
    </style>
  </defs>
  <g id="Messages" transform="translate(-14 -630)">
    <text id="Tab_Label" data-name="Tab Label" class="cls-1" transform="translate(14 649.5)"><tspan x="2.428" y="11">Messages</tspan></text>
    <g id="Group_10" data-name="Group 10" transform="translate(27 630)">
      <path id="Path_8" data-name="Path 8" class="cls-2" d="M21,0H1A.945.945,0,0,0,0,1V14.9a.945.945,0,0,0,1,1H21a.945.945,0,0,0,1-1V1A.945.945,0,0,0,21,0ZM20,13.9H2V2H20Z"/>
      <path id="Path_9" data-name="Path 9" class="cls-2" d="M3.8,12.8a1.072,1.072,0,0,0,.6.2.909.909,0,0,0,.8-.4L8.4,8.5l2,1.5a1.421,1.421,0,0,0,.6.2,1.421,1.421,0,0,0,.6-.2l2-1.5,3.2,4.1a1.234,1.234,0,0,0,.8.4,1.421,1.421,0,0,0,.6-.2,1.075,1.075,0,0,0,.2-1.4l-3.2-4,2.8-2A1.075,1.075,0,0,0,18.2,4a1.075,1.075,0,0,0-1.4-.2L11,7.9,5.1,3.7a1.09,1.09,0,0,0-1.4.2A1,1,0,0,0,4,5.3l2.8,2-3.2,4A1.1,1.1,0,0,0,3.8,12.8Z"/>
    </g>
  </g>
</svg>
